STARTFONT 2.1
FONT -Bitstream-Terminal-Medium-R-Narrow--18-140-100-100-C-70-DEC-DECtech
SIZE 14 100 100
FONTBOUNDINGBOX 7 20 0 -5

STARTPROPERTIES 24
FOUNDRY "Bitstream"
FAMILY_NAME "Terminal"
WEIGHT_NAME "Medium"
SLANT "R"
SETWIDTH_NAME "Narrow"
ADD_STYLE_NAME ""
PIXEL_SIZE 18
POINT_SIZE 140
RESOLUTION_X 100
RESOLUTION_Y 100
SPACING "C"
AVERAGE_WIDTH 70
CHARSET_REGISTRY "DEC"
CHARSET_ENCODING "DECtech"
CAP_HEIGHT 11
COPYRIGHT "Copyright (c) 1991 Digital Equipment Corporation. All Rights Reserved."
_DEC_PRODUCTINFO "DECterm Fonts V2.2, 11-Nov-1991"
FULL_NAME "Terminal Narrow"
WEIGHT 10
X_HEIGHT -3
QUAD_WIDTH 7
DEFAULT_CHAR 159
FONT_DESCENT 5
FONT_ASCENT 15
ENDPROPERTIES

CHARS 182

STARTCHAR space
ENCODING 32
SWIDTH 360 0
DWIDTH 7 0
BBX 7 20 0 -5
BITMAP
00
00
00
00
00
00
00
00
00
00
00
00
00
00
00
00
00
00
00
00
ENDCHAR

STARTCHAR exclam
ENCODING 33
SWIDTH 360 0
DWIDTH 7 0
BBX 7 20 0 -5
BITMAP
00
00
00
00
10
10
10
10
10
10
10
00
10
38
10
00
00
00
00
00
ENDCHAR

STARTCHAR quotedbl
ENCODING 34
SWIDTH 360 0
DWIDTH 7 0
BBX 7 20 0 -5
BITMAP
00
00
28
28
28
28
00
00
00
00
00
00
00
00
00
00
00
00
00
00
ENDCHAR

STARTCHAR numbersign
ENCODING 35
SWIDTH 360 0
DWIDTH 7 0
BBX 7 20 0 -5
BITMAP
00
00
00
00
28
28
28
28
7C
28
28
7C
28
28
28
28
00
00
00
00
ENDCHAR

STARTCHAR dollar
ENCODING 36
SWIDTH 360 0
DWIDTH 7 0
BBX 7 20 0 -5
BITMAP
00
00
08
08
1C
24
24
20
10
08
04
04
24
24
38
10
10
10
00
00
ENDCHAR

STARTCHAR percent
ENCODING 37
SWIDTH 360 0
DWIDTH 7 0
BBX 7 20 0 -5
BITMAP
00
00
00
00
20
50
50
54
28
10
28
54
14
14
08
00
00
00
00
00
ENDCHAR

STARTCHAR ampersand
ENCODING 38
SWIDTH 360 0
DWIDTH 7 0
BBX 7 20 0 -5
BITMAP
00
00
00
00
18
28
20
20
20
54
54
48
48
48
34
00
00
00
00
00
ENDCHAR

STARTCHAR quoteright
ENCODING 39
SWIDTH 360 0
DWIDTH 7 0
BBX 7 20 0 -5
BITMAP
00
00
08
08
10
10
00
00
00
00
00
00
00
00
00
00
00
00
00
00
ENDCHAR

STARTCHAR parenleft
ENCODING 40
SWIDTH 360 0
DWIDTH 7 0
BBX 7 20 0 -5
BITMAP
00
00
00
08
10
10
20
20
20
20
20
20
20
10
10
08
00
00
00
00
ENDCHAR

STARTCHAR parenright
ENCODING 41
SWIDTH 360 0
DWIDTH 7 0
BBX 7 20 0 -5
BITMAP
00
00
00
20
10
10
08
08
08
08
08
08
08
10
10
20
00
00
00
00
ENDCHAR

STARTCHAR asterisk
ENCODING 42
SWIDTH 360 0
DWIDTH 7 0
BBX 7 20 0 -5
BITMAP
00
00
00
00
00
00
10
54
38
10
28
44
00
00
00
00
00
00
00
00
ENDCHAR

STARTCHAR plus
ENCODING 43
SWIDTH 360 0
DWIDTH 7 0
BBX 7 20 0 -5
BITMAP
00
00
00
00
00
00
10
10
10
7C
10
10
10
00
00
00
00
00
00
00
ENDCHAR

STARTCHAR comma
ENCODING 44
SWIDTH 360 0
DWIDTH 7 0
BBX 7 20 0 -5
BITMAP
00
00
00
00
00
00
00
00
00
00
00
00
00
18
10
20
20
00
00
00
ENDCHAR

STARTCHAR minus
ENCODING 45
SWIDTH 360 0
DWIDTH 7 0
BBX 7 20 0 -5
BITMAP
00
00
00
00
00
00
00
00
00
7C
00
00
00
00
00
00
00
00
00
00
ENDCHAR

STARTCHAR period
ENCODING 46
SWIDTH 360 0
DWIDTH 7 0
BBX 7 20 0 -5
BITMAP
00
00
00
00
00
00
00
00
00
00
00
00
10
38
10
00
00
00
00
00
ENDCHAR

STARTCHAR slash
ENCODING 47
SWIDTH 360 0
DWIDTH 7 0
BBX 7 20 0 -5
BITMAP
00
00
00
04
04
04
08
08
08
10
10
10
10
20
20
20
00
00
00
00
ENDCHAR

STARTCHAR zero
ENCODING 48
SWIDTH 360 0
DWIDTH 7 0
BBX 7 20 0 -5
BITMAP
00
00
00
00
10
28
28
44
44
44
44
44
28
28
10
00
00
00
00
00
ENDCHAR

STARTCHAR one
ENCODING 49
SWIDTH 360 0
DWIDTH 7 0
BBX 7 20 0 -5
BITMAP
00
00
00
00
10
30
50
10
10
10
10
10
10
10
7C
00
00
00
00
00
ENDCHAR

STARTCHAR two
ENCODING 50
SWIDTH 360 0
DWIDTH 7 0
BBX 7 20 0 -5
BITMAP
00
00
00
00
18
24
24
04
04
08
08
10
10
24
3C
00
00
00
00
00
ENDCHAR

STARTCHAR three
ENCODING 51
SWIDTH 360 0
DWIDTH 7 0
BBX 7 20 0 -5
BITMAP
00
00
00
00
18
24
04
04
04
18
04
04
04
24
18
00
00
00
00
00
ENDCHAR

STARTCHAR four
ENCODING 52
SWIDTH 360 0
DWIDTH 7 0
BBX 7 20 0 -5
BITMAP
00
00
00
00
08
08
18
28
28
48
48
7C
08
08
1C
00
00
00
00
00
ENDCHAR

STARTCHAR five
ENCODING 53
SWIDTH 360 0
DWIDTH 7 0
BBX 7 20 0 -5
BITMAP
00
00
00
00
3C
20
20
20
38
24
04
04
04
24
18
00
00
00
00
00
ENDCHAR

STARTCHAR six
ENCODING 54
SWIDTH 360 0
DWIDTH 7 0
BBX 7 20 0 -5
BITMAP
00
00
00
00
0C
10
10
20
38
24
24
24
24
24
18
00
00
00
00
00
ENDCHAR

STARTCHAR seven
ENCODING 55
SWIDTH 360 0
DWIDTH 7 0
BBX 7 20 0 -5
BITMAP
00
00
00
00
3C
24
04
08
08
08
10
10
20
20
20
00
00
00
00
00
ENDCHAR

STARTCHAR eight
ENCODING 56
SWIDTH 360 0
DWIDTH 7 0
BBX 7 20 0 -5
BITMAP
00
00
00
00
18
24
24
24
24
18
24
24
24
24
18
00
00
00
00
00
ENDCHAR

STARTCHAR nine
ENCODING 57
SWIDTH 360 0
DWIDTH 7 0
BBX 7 20 0 -5
BITMAP
00
00
00
00
18
24
24
24
24
24
1C
04
08
08
30
00
00
00
00
00
ENDCHAR

STARTCHAR colon
ENCODING 58
SWIDTH 360 0
DWIDTH 7 0
BBX 7 20 0 -5
BITMAP
00
00
00
00
00
00
00
10
38
10
00
00
10
38
10
00
00
00
00
00
ENDCHAR

STARTCHAR semicolon
ENCODING 59
SWIDTH 360 0
DWIDTH 7 0
BBX 7 20 0 -5
BITMAP
00
00
00
00
00
00
00
10
38
10
00
00
00
18
10
20
20
00
00
00
ENDCHAR

STARTCHAR less
ENCODING 60
SWIDTH 360 0
DWIDTH 7 0
BBX 7 20 0 -5
BITMAP
00
00
00
00
00
04
08
10
20
40
20
10
08
04
00
00
00
00
00
00
ENDCHAR

STARTCHAR equal
ENCODING 61
SWIDTH 360 0
DWIDTH 7 0
BBX 7 20 0 -5
BITMAP
00
00
00
00
00
00
00
7C
00
00
7C
00
00
00
00
00
00
00
00
00
ENDCHAR

STARTCHAR greater
ENCODING 62
SWIDTH 360 0
DWIDTH 7 0
BBX 7 20 0 -5
BITMAP
00
00
00
00
00
40
20
10
08
04
08
10
20
40
00
00
00
00
00
00
ENDCHAR

STARTCHAR question
ENCODING 63
SWIDTH 360 0
DWIDTH 7 0
BBX 7 20 0 -5
BITMAP
00
00
00
00
38
44
44
04
08
10
10
00
10
38
10
00
00
00
00
00
ENDCHAR

STARTCHAR at
ENCODING 64
SWIDTH 360 0
DWIDTH 7 0
BBX 7 20 0 -5
BITMAP
00
00
00
00
38
44
44
44
4C
54
54
54
4E
40
40
24
18
00
00
00
ENDCHAR

STARTCHAR A
ENCODING 65
SWIDTH 360 0
DWIDTH 7 0
BBX 7 20 0 -5
BITMAP
00
00
00
00
10
10
28
28
28
44
44
7C
44
44
C6
00
00
00
00
00
ENDCHAR

STARTCHAR B
ENCODING 66
SWIDTH 360 0
DWIDTH 7 0
BBX 7 20 0 -5
BITMAP
00
00
00
00
F8
44
44
44
44
78
44
44
44
44
F8
00
00
00
00
00
ENDCHAR

STARTCHAR C
ENCODING 67
SWIDTH 360 0
DWIDTH 7 0
BBX 7 20 0 -5
BITMAP
00
00
00
00
34
4C
44
40
40
40
40
40
40
44
38
00
00
00
00
00
ENDCHAR

STARTCHAR D
ENCODING 68
SWIDTH 360 0
DWIDTH 7 0
BBX 7 20 0 -5
BITMAP
00
00
00
00
F8
44
44
44
44
44
44
44
44
44
F8
00
00
00
00
00
ENDCHAR

STARTCHAR E
ENCODING 69
SWIDTH 360 0
DWIDTH 7 0
BBX 7 20 0 -5
BITMAP
00
00
00
00
FC
44
44
40
48
78
48
40
44
44
FC
00
00
00
00
00
ENDCHAR

STARTCHAR F
ENCODING 70
SWIDTH 360 0
DWIDTH 7 0
BBX 7 20 0 -5
BITMAP
00
00
00
00
FC
44
44
40
48
78
48
40
40
40
E0
00
00
00
00
00
ENDCHAR

STARTCHAR G
ENCODING 71
SWIDTH 360 0
DWIDTH 7 0
BBX 7 20 0 -5
BITMAP
00
00
00
00
34
4C
44
40
40
40
4E
44
44
44
3C
00
00
00
00
00
ENDCHAR

STARTCHAR H
ENCODING 72
SWIDTH 360 0
DWIDTH 7 0
BBX 7 20 0 -5
BITMAP
00
00
00
00
EE
44
44
44
44
7C
44
44
44
44
EE
00
00
00
00
00
ENDCHAR

STARTCHAR I
ENCODING 73
SWIDTH 360 0
DWIDTH 7 0
BBX 7 20 0 -5
BITMAP
00
00
00
00
7C
10
10
10
10
10
10
10
10
10
7C
00
00
00
00
00
ENDCHAR

STARTCHAR J
ENCODING 74
SWIDTH 360 0
DWIDTH 7 0
BBX 7 20 0 -5
BITMAP
00
00
00
00
3C
08
08
08
08
08
08
88
88
88
70
00
00
00
00
00
ENDCHAR

STARTCHAR K
ENCODING 75
SWIDTH 360 0
DWIDTH 7 0
BBX 7 20 0 -5
BITMAP
00
00
00
00
E6
44
48
48
50
70
48
48
44
44
E6
00
00
00
00
00
ENDCHAR

STARTCHAR L
ENCODING 76
SWIDTH 360 0
DWIDTH 7 0
BBX 7 20 0 -5
BITMAP
00
00
00
00
70
20
20
20
20
20
20
20
22
22
7E
00
00
00
00
00
ENDCHAR

STARTCHAR M
ENCODING 77
SWIDTH 360 0
DWIDTH 7 0
BBX 7 20 0 -5
BITMAP
00
00
00
00
C6
44
6C
6C
54
54
54
44
44
44
EE
00
00
00
00
00
ENDCHAR

STARTCHAR N
ENCODING 78
SWIDTH 360 0
DWIDTH 7 0
BBX 7 20 0 -5
BITMAP
00
00
00
00
CE
44
64
64
54
54
54
4C
4C
44
E4
00
00
00
00
00
ENDCHAR

STARTCHAR O
ENCODING 79
SWIDTH 360 0
DWIDTH 7 0
BBX 7 20 0 -5
BITMAP
00
00
00
00
38
44
44
44
44
44
44
44
44
44
38
00
00
00
00
00
ENDCHAR

STARTCHAR P
ENCODING 80
SWIDTH 360 0
DWIDTH 7 0
BBX 7 20 0 -5
BITMAP
00
00
00
00
F8
44
44
44
44
44
78
40
40
40
F0
00
00
00
00
00
ENDCHAR

STARTCHAR Q
ENCODING 81
SWIDTH 360 0
DWIDTH 7 0
BBX 7 20 0 -5
BITMAP
00
00
00
00
38
44
44
44
44
44
44
44
44
44
38
20
34
48
00
00
ENDCHAR

STARTCHAR R
ENCODING 82
SWIDTH 360 0
DWIDTH 7 0
BBX 7 20 0 -5
BITMAP
00
00
00
00
F8
44
44
44
44
78
48
48
44
44
E6
00
00
00
00
00
ENDCHAR

STARTCHAR S
ENCODING 83
SWIDTH 360 0
DWIDTH 7 0
BBX 7 20 0 -5
BITMAP
00
00
00
00
3C
44
44
40
40
38
04
04
44
44
78
00
00
00
00
00
ENDCHAR

STARTCHAR T
ENCODING 84
SWIDTH 360 0
DWIDTH 7 0
BBX 7 20 0 -5
BITMAP
00
00
00
00
FE
92
92
92
10
10
10
10
10
10
38
00
00
00
00
00
ENDCHAR

STARTCHAR U
ENCODING 85
SWIDTH 360 0
DWIDTH 7 0
BBX 7 20 0 -5
BITMAP
00
00
00
00
EE
44
44
44
44
44
44
44
44
44
38
00
00
00
00
00
ENDCHAR

STARTCHAR V
ENCODING 86
SWIDTH 360 0
DWIDTH 7 0
BBX 7 20 0 -5
BITMAP
00
00
00
00
C6
44
44
44
44
28
28
28
28
10
10
00
00
00
00
00
ENDCHAR

STARTCHAR W
ENCODING 87
SWIDTH 360 0
DWIDTH 7 0
BBX 7 20 0 -5
BITMAP
00
00
00
00
C6
82
92
92
92
AA
AA
AA
44
44
44
00
00
00
00
00
ENDCHAR

STARTCHAR X
ENCODING 88
SWIDTH 360 0
DWIDTH 7 0
BBX 7 20 0 -5
BITMAP
00
00
00
00
C6
44
28
28
10
10
28
28
44
44
C6
00
00
00
00
00
ENDCHAR

STARTCHAR Y
ENCODING 89
SWIDTH 360 0
DWIDTH 7 0
BBX 7 20 0 -5
BITMAP
00
00
00
00
EE
44
44
44
28
28
10
10
10
10
38
00
00
00
00
00
ENDCHAR

STARTCHAR Z
ENCODING 90
SWIDTH 360 0
DWIDTH 7 0
BBX 7 20 0 -5
BITMAP
00
00
00
00
7C
44
48
08
10
10
10
20
24
44
7C
00
00
00
00
00
ENDCHAR

STARTCHAR bracketleft
ENCODING 91
SWIDTH 360 0
DWIDTH 7 0
BBX 7 20 0 -5
BITMAP
00
00
00
38
20
20
20
20
20
20
20
20
20
20
20
38
00
00
00
00
ENDCHAR

STARTCHAR backslash
ENCODING 92
SWIDTH 360 0
DWIDTH 7 0
BBX 7 20 0 -5
BITMAP
00
00
00
40
40
40
20
20
20
10
10
10
10
08
08
08
00
00
00
00
ENDCHAR

STARTCHAR bracketright
ENCODING 93
SWIDTH 360 0
DWIDTH 7 0
BBX 7 20 0 -5
BITMAP
00
00
00
38
08
08
08
08
08
08
08
08
08
08
08
38
00
00
00
00
ENDCHAR

STARTCHAR asciicircum
ENCODING 94
SWIDTH 360 0
DWIDTH 7 0
BBX 7 20 0 -5
BITMAP
00
00
00
00
00
00
10
38
44
00
00
00
00
00
00
00
00
00
00
00
ENDCHAR

STARTCHAR ldblank
ENCODING 95
SWIDTH 360 0
DWIDTH 7 0
BBX 7 20 0 -5
BITMAP
00
00
00
00
00
00
00
00
00
00
00
00
00
00
00
00
00
00
00
00
ENDCHAR

STARTCHAR diamond
ENCODING 96
SWIDTH 360 0
DWIDTH 7 0
BBX 7 20 0 -5
BITMAP
00
00
00
00
10
10
38
38
7C
FE
7C
38
38
10
10
00
00
00
00
00
ENDCHAR

STARTCHAR checkerboard
ENCODING 97
SWIDTH 360 0
DWIDTH 7 0
BBX 7 20 0 -5
BITMAP
AA
54
AA
54
AA
54
AA
54
AA
54
AA
54
AA
54
AA
54
AA
54
AA
54
ENDCHAR

STARTCHAR HT
ENCODING 98
SWIDTH 360 0
DWIDTH 7 0
BBX 7 20 0 -5
BITMAP
00
00
00
50
50
70
50
50
50
00
1C
08
08
08
08
08
00
00
00
00
ENDCHAR

STARTCHAR FF
ENCODING 99
SWIDTH 360 0
DWIDTH 7 0
BBX 7 20 0 -5
BITMAP
00
00
00
70
40
70
40
40
40
00
1C
10
1C
10
10
10
00
00
00
00
ENDCHAR

STARTCHAR CR
ENCODING 100
SWIDTH 360 0
DWIDTH 7 0
BBX 7 20 0 -5
BITMAP
00
00
00
30
48
40
40
48
30
00
18
14
14
18
14
14
00
00
00
00
ENDCHAR

STARTCHAR LF
ENCODING 101
SWIDTH 360 0
DWIDTH 7 0
BBX 7 20 0 -5
BITMAP
00
00
00
40
40
40
40
40
70
00
1C
10
1C
10
10
10
00
00
00
00
ENDCHAR

STARTCHAR degree
ENCODING 102
SWIDTH 360 0
DWIDTH 7 0
BBX 7 20 0 -5
BITMAP
00
00
00
18
24
24
18
00
00
00
00
00
00
00
00
00
00
00
00
00
ENDCHAR

STARTCHAR plusminus
ENCODING 103
SWIDTH 360 0
DWIDTH 7 0
BBX 7 20 0 -5
BITMAP
00
00
00
00
00
10
10
10
7C
10
10
10
00
00
7C
00
00
00
00
00
ENDCHAR

STARTCHAR NL
ENCODING 104
SWIDTH 360 0
DWIDTH 7 0
BBX 7 20 0 -5
BITMAP
00
00
00
48
68
68
58
58
48
00
08
08
08
08
08
0E
00
00
00
00
ENDCHAR

STARTCHAR VT
ENCODING 105
SWIDTH 360 0
DWIDTH 7 0
BBX 7 20 0 -5
BITMAP
00
00
00
50
50
50
50
20
20
00
1C
08
08
08
08
08
00
00
00
00
ENDCHAR

STARTCHAR ldcornsqlr
ENCODING 106
SWIDTH 360 0
DWIDTH 7 0
BBX 7 20 0 -5
BITMAP
10
10
10
10
10
10
10
10
10
10
F0
00
00
00
00
00
00
00
00
00
ENDCHAR

STARTCHAR ldcornsqur
ENCODING 107
SWIDTH 360 0
DWIDTH 7 0
BBX 7 20 0 -5
BITMAP
00
00
00
00
00
00
00
00
00
00
F0
10
10
10
10
10
10
10
10
10
ENDCHAR

STARTCHAR ldcornsqul
ENCODING 108
SWIDTH 360 0
DWIDTH 7 0
BBX 7 20 0 -5
BITMAP
00
00
00
00
00
00
00
00
00
00
1E
10
10
10
10
10
10
10
10
10
ENDCHAR

STARTCHAR ldcornsqll
ENCODING 109
SWIDTH 360 0
DWIDTH 7 0
BBX 7 20 0 -5
BITMAP
10
10
10
10
10
10
10
10
10
10
1E
00
00
00
00
00
00
00
00
00
ENDCHAR

STARTCHAR ldcross
ENCODING 110
SWIDTH 360 0
DWIDTH 7 0
BBX 7 20 0 -5
BITMAP
10
10
10
10
10
10
10
10
10
10
FE
10
10
10
10
10
10
10
10
10
ENDCHAR

STARTCHAR ldscan1
ENCODING 111
SWIDTH 360 0
DWIDTH 7 0
BBX 7 20 0 -5
BITMAP
00
00
FE
00
00
00
00
00
00
00
00
00
00
00
00
00
00
00
00
00
ENDCHAR

STARTCHAR ldscan3
ENCODING 112
SWIDTH 360 0
DWIDTH 7 0
BBX 7 20 0 -5
BITMAP
00
00
00
00
00
00
FE
00
00
00
00
00
00
00
00
00
00
00
00
00
ENDCHAR

STARTCHAR ldhorizontal
ENCODING 113
SWIDTH 360 0
DWIDTH 7 0
BBX 7 20 0 -5
BITMAP
00
00
00
00
00
00
00
00
00
00
FE
00
00
00
00
00
00
00
00
00
ENDCHAR

STARTCHAR ldscan7
ENCODING 114
SWIDTH 360 0
DWIDTH 7 0
BBX 7 20 0 -5
BITMAP
00
00
00
00
00
00
00
00
00
00
00
00
00
00
FE
00
00
00
00
00
ENDCHAR

STARTCHAR ldscan9
ENCODING 115
SWIDTH 360 0
DWIDTH 7 0
BBX 7 20 0 -5
BITMAP
00
00
00
00
00
00
00
00
00
00
00
00
00
00
00
00
00
00
FE
00
ENDCHAR

STARTCHAR ldteelft
ENCODING 116
SWIDTH 360 0
DWIDTH 7 0
BBX 7 20 0 -5
BITMAP
10
10
10
10
10
10
10
10
10
10
1E
10
10
10
10
10
10
10
10
10
ENDCHAR

STARTCHAR ldteert
ENCODING 117
SWIDTH 360 0
DWIDTH 7 0
BBX 7 20 0 -5
BITMAP
10
10
10
10
10
10
10
10
10
10
F0
10
10
10
10
10
10
10
10
10
ENDCHAR

STARTCHAR ldteebt
ENCODING 118
SWIDTH 360 0
DWIDTH 7 0
BBX 7 20 0 -5
BITMAP
10
10
10
10
10
10
10
10
10
10
FE
00
00
00
00
00
00
00
00
00
ENDCHAR

STARTCHAR ldteetp
ENCODING 119
SWIDTH 360 0
DWIDTH 7 0
BBX 7 20 0 -5
BITMAP
00
00
00
00
00
00
00
00
00
00
FE
10
10
10
10
10
10
10
10
10
ENDCHAR

STARTCHAR ldvertical
ENCODING 120
SWIDTH 360 0
DWIDTH 7 0
BBX 7 20 0 -5
BITMAP
10
10
10
10
10
10
10
10
10
10
10
10
10
10
10
10
10
10
10
10
ENDCHAR

STARTCHAR lessequal
ENCODING 121
SWIDTH 360 0
DWIDTH 7 0
BBX 7 20 0 -5
BITMAP
00
00
00
00
00
04
18
60
60
18
04
00
00
7C
00
00
00
00
00
00
ENDCHAR

STARTCHAR greaterequal
ENCODING 122
SWIDTH 360 0
DWIDTH 7 0
BBX 7 20 0 -5
BITMAP
00
00
00
00
00
40
30
0C
0C
30
40
00
00
7C
00
00
00
00
00
00
ENDCHAR

STARTCHAR pi
ENCODING 123
SWIDTH 360 0
DWIDTH 7 0
BBX 7 20 0 -5
BITMAP
00
00
00
00
00
00
7E
24
24
24
44
48
48
48
4C
00
00
00
00
00
ENDCHAR

STARTCHAR notequal
ENCODING 124
SWIDTH 360 0
DWIDTH 7 0
BBX 7 20 0 -5
BITMAP
00
00
00
00
00
08
08
7C
10
10
7C
20
20
00
00
00
00
00
00
00
ENDCHAR

STARTCHAR sterling
ENCODING 125
SWIDTH 360 0
DWIDTH 7 0
BBX 7 20 0 -5
BITMAP
00
00
00
00
18
24
24
20
10
7C
10
10
10
32
4C
00
00
00
00
00
ENDCHAR

STARTCHAR periodcentered
ENCODING 126
SWIDTH 360 0
DWIDTH 7 0
BBX 7 20 0 -5
BITMAP
00
00
00
00
00
00
00
00
10
38
10
00
00
00
00
00
00
00
00
00
ENDCHAR

STARTCHAR Error
ENCODING 159
SWIDTH 360 0
DWIDTH 7 0
BBX 7 20 0 -5
BITMAP
00
78
CC
84
84
80
80
40
20
10
10
10
00
00
00
10
7C
10
00
00
ENDCHAR

STARTCHAR space
ENCODING 160
SWIDTH 360 0
DWIDTH 7 0
BBX 7 20 0 -5
BITMAP
00
00
00
00
00
00
00
00
00
00
00
00
00
00
00
00
00
00
00
00
ENDCHAR

STARTCHAR ldradicalbt
ENCODING 161
SWIDTH 360 0
DWIDTH 7 0
BBX 7 20 0 -5
BITMAP
10
10
10
10
10
10
10
10
D0
30
10
10
00
00
00
00
00
00
00
00
ENDCHAR

STARTCHAR ldradicaltp
ENCODING 162
SWIDTH 360 0
DWIDTH 7 0
BBX 7 20 0 -5
BITMAP
00
00
00
00
00
00
00
00
00
00
1E
10
10
10
10
10
10
10
10
10
ENDCHAR

STARTCHAR ldhorizontal
ENCODING 163
SWIDTH 360 0
DWIDTH 7 0
BBX 7 20 0 -5
BITMAP
00
00
00
00
00
00
00
00
00
00
FE
00
00
00
00
00
00
00
00
00
ENDCHAR

STARTCHAR ldintegraltp
ENCODING 164
SWIDTH 360 0
DWIDTH 7 0
BBX 7 20 0 -5
BITMAP
00
00
0E
10
10
10
10
10
10
10
10
10
10
10
10
10
10
10
10
10
ENDCHAR

STARTCHAR ldintegralbt
ENCODING 165
SWIDTH 360 0
DWIDTH 7 0
BBX 7 20 0 -5
BITMAP
10
10
10
10
10
10
10
10
10
10
10
10
10
10
10
10
10
E0
00
00
ENDCHAR

STARTCHAR ldvertical
ENCODING 166
SWIDTH 360 0
DWIDTH 7 0
BBX 7 20 0 -5
BITMAP
10
10
10
10
10
10
10
10
10
10
10
10
10
10
10
10
10
10
10
10
ENDCHAR

STARTCHAR ldbracketlfttp
ENCODING 167
SWIDTH 360 0
DWIDTH 7 0
BBX 7 20 0 -5
BITMAP
00
00
1E
10
10
10
10
10
10
10
10
10
10
10
10
10
10
10
10
10
ENDCHAR

STARTCHAR ldbracketlftbt
ENCODING 168
SWIDTH 360 0
DWIDTH 7 0
BBX 7 20 0 -5
BITMAP
10
10
10
10
10
10
10
10
10
10
10
10
10
10
10
10
10
1E
00
00
ENDCHAR

STARTCHAR ldbracketrttp
ENCODING 169
SWIDTH 360 0
DWIDTH 7 0
BBX 7 20 0 -5
BITMAP
00
00
F0
10
10
10
10
10
10
10
10
10
10
10
10
10
10
10
10
10
ENDCHAR

STARTCHAR ldbracketrtbt
ENCODING 170
SWIDTH 360 0
DWIDTH 7 0
BBX 7 20 0 -5
BITMAP
10
10
10
10
10
10
10
10
10
10
10
10
10
10
10
10
10
F0
00
00
ENDCHAR

STARTCHAR ldbracelfttp
ENCODING 171
SWIDTH 360 0
DWIDTH 7 0
BBX 7 20 0 -5
BITMAP
00
00
06
08
10
10
10
10
10
10
10
10
10
10
10
10
10
10
10
10
ENDCHAR

STARTCHAR ldbracelftbt
ENCODING 172
SWIDTH 360 0
DWIDTH 7 0
BBX 7 20 0 -5
BITMAP
10
10
10
10
10
10
10
10
10
10
10
10
10
10
10
10
08
06
00
00
ENDCHAR

STARTCHAR ldbracerttp
ENCODING 173
SWIDTH 360 0
DWIDTH 7 0
BBX 7 20 0 -5
BITMAP
00
00
C0
20
10
10
10
10
10
10
10
10
10
10
10
10
10
10
10
10
ENDCHAR

STARTCHAR ldbracertbt
ENCODING 174
SWIDTH 360 0
DWIDTH 7 0
BBX 7 20 0 -5
BITMAP
10
10
10
10
10
10
10
10
10
10
10
10
10
10
10
10
20
C0
00
00
ENDCHAR

STARTCHAR ldbracelftmid
ENCODING 175
SWIDTH 360 0
DWIDTH 7 0
BBX 7 20 0 -5
BITMAP
10
10
10
10
10
10
10
10
10
20
40
20
10
10
10
10
10
10
10
10
ENDCHAR

STARTCHAR ldbracertmid
ENCODING 176
SWIDTH 360 0
DWIDTH 7 0
BBX 7 20 0 -5
BITMAP
10
10
10
10
10
10
10
10
10
08
04
08
10
10
10
10
10
10
10
10
ENDCHAR

STARTCHAR ldsigmalfttp
ENCODING 177
SWIDTH 360 0
DWIDTH 7 0
BBX 7 20 0 -5
BITMAP
00
00
00
00
00
00
00
00
00
00
3E
20
10
10
08
08
04
04
02
02
ENDCHAR

STARTCHAR ldsigmalftbt
ENCODING 178
SWIDTH 360 0
DWIDTH 7 0
BBX 7 20 0 -5
BITMAP
02
02
02
04
04
08
08
10
10
20
3E
00
00
00
00
00
00
00
00
00
ENDCHAR

STARTCHAR ldbackslash
ENCODING 179
SWIDTH 360 0
DWIDTH 7 0
BBX 7 20 0 -5
BITMAP
80
80
80
40
40
40
20
20
20
10
10
10
08
08
08
04
04
04
02
02
ENDCHAR

STARTCHAR ldslash
ENCODING 180
SWIDTH 360 0
DWIDTH 7 0
BBX 7 20 0 -5
BITMAP
02
02
02
04
04
04
08
08
08
10
10
10
20
20
20
40
40
40
80
80
ENDCHAR

STARTCHAR ldsigmarttp
ENCODING 181
SWIDTH 360 0
DWIDTH 7 0
BBX 7 20 0 -5
BITMAP
00
00
00
00
00
00
00
00
00
00
FE
02
02
00
00
00
00
00
00
00
ENDCHAR

STARTCHAR ldsigmartbt
ENCODING 182
SWIDTH 360 0
DWIDTH 7 0
BBX 7 20 0 -5
BITMAP
00
00
00
00
00
00
00
00
02
02
FE
00
00
00
00
00
00
00
00
00
ENDCHAR

STARTCHAR ldsigmamid
ENCODING 183
SWIDTH 360 0
DWIDTH 7 0
BBX 7 20 0 -5
BITMAP
80
80
80
40
40
40
20
20
20
10
10
10
20
20
20
40
40
40
80
80
ENDCHAR

STARTCHAR lessequal
ENCODING 188
SWIDTH 360 0
DWIDTH 7 0
BBX 7 20 0 -5
BITMAP
00
00
00
00
00
04
18
60
60
18
04
00
00
7C
00
00
00
00
00
00
ENDCHAR

STARTCHAR notequal
ENCODING 189
SWIDTH 360 0
DWIDTH 7 0
BBX 7 20 0 -5
BITMAP
00
00
00
00
00
08
08
7C
10
10
7C
20
20
00
00
00
00
00
00
00
ENDCHAR

STARTCHAR greaterequal
ENCODING 190
SWIDTH 360 0
DWIDTH 7 0
BBX 7 20 0 -5
BITMAP
00
00
00
00
00
40
30
0C
0C
30
40
00
00
7C
00
00
00
00
00
00
ENDCHAR

STARTCHAR integral
ENCODING 191
SWIDTH 360 0
DWIDTH 7 0
BBX 7 20 0 -5
BITMAP
00
0C
10
10
10
10
10
10
10
10
10
10
10
10
10
10
10
10
60
00
ENDCHAR

STARTCHAR therefore
ENCODING 192
SWIDTH 360 0
DWIDTH 7 0
BBX 7 20 0 -5
BITMAP
00
00
00
00
00
00
10
38
10
00
00
00
44
EE
44
00
00
00
00
00
ENDCHAR

STARTCHAR proportional
ENCODING 193
SWIDTH 360 0
DWIDTH 7 0
BBX 7 20 0 -5
BITMAP
00
00
00
00
00
00
32
4C
48
48
48
4C
32
00
00
00
00
00
00
00
ENDCHAR

STARTCHAR infinity
ENCODING 194
SWIDTH 360 0
DWIDTH 7 0
BBX 7 20 0 -5
BITMAP
00
00
00
00
00
00
6C
92
92
92
92
92
6C
00
00
00
00
00
00
00
ENDCHAR

STARTCHAR divide
ENCODING 195
SWIDTH 360 0
DWIDTH 7 0
BBX 7 20 0 -5
BITMAP
00
00
00
00
00
00
10
10
00
7C
00
10
10
00
00
00
00
00
00
00
ENDCHAR

STARTCHAR Delta
ENCODING 196
SWIDTH 360 0
DWIDTH 7 0
BBX 7 20 0 -5
BITMAP
00
00
00
00
10
10
28
28
28
28
44
44
44
44
FE
00
00
00
00
00
ENDCHAR

STARTCHAR gradient
ENCODING 197
SWIDTH 360 0
DWIDTH 7 0
BBX 7 20 0 -5
BITMAP
00
00
00
00
FE
44
44
44
44
28
28
28
28
10
10
00
00
00
00
00
ENDCHAR

STARTCHAR Phi
ENCODING 198
SWIDTH 360 0
DWIDTH 7 0
BBX 7 20 0 -5
BITMAP
00
00
00
00
38
10
38
54
54
54
54
54
38
10
38
00
00
00
00
00
ENDCHAR

STARTCHAR Gamma
ENCODING 199
SWIDTH 360 0
DWIDTH 7 0
BBX 7 20 0 -5
BITMAP
00
00
00
00
7C
24
24
20
20
20
20
20
20
20
78
00
00
00
00
00
ENDCHAR

STARTCHAR similar
ENCODING 200
SWIDTH 360 0
DWIDTH 7 0
BBX 7 20 0 -5
BITMAP
00
00
00
00
00
00
00
00
74
4C
00
00
00
00
00
00
00
00
00
00
ENDCHAR

STARTCHAR approxequal
ENCODING 201
SWIDTH 360 0
DWIDTH 7 0
BBX 7 20 0 -5
BITMAP
00
00
00
00
00
00
00
00
74
4C
00
7C
00
00
00
00
00
00
00
00
ENDCHAR

STARTCHAR Theta
ENCODING 202
SWIDTH 360 0
DWIDTH 7 0
BBX 7 20 0 -5
BITMAP
00
00
00
00
38
44
44
44
54
54
54
44
44
44
38
00
00
00
00
00
ENDCHAR

STARTCHAR multiply
ENCODING 203
SWIDTH 360 0
DWIDTH 7 0
BBX 7 20 0 -5
BITMAP
00
00
00
00
00
00
00
44
28
10
10
28
44
00
00
00
00
00
00
00
ENDCHAR

STARTCHAR Lambda
ENCODING 204
SWIDTH 360 0
DWIDTH 7 0
BBX 7 20 0 -5
BITMAP
00
00
00
00
10
10
28
28
28
28
44
44
44
44
C6
00
00
00
00
00
ENDCHAR

STARTCHAR arrowdblboth
ENCODING 205
SWIDTH 360 0
DWIDTH 7 0
BBX 7 20 0 -5
BITMAP
00
00
00
00
00
00
00
28
7C
C6
7C
28
00
00
00
00
00
00
00
00
ENDCHAR

STARTCHAR arrowdblright
ENCODING 206
SWIDTH 360 0
DWIDTH 7 0
BBX 7 20 0 -5
BITMAP
00
00
00
00
00
00
10
08
FC
06
FC
08
10
00
00
00
00
00
00
00
ENDCHAR

STARTCHAR equivalence
ENCODING 207
SWIDTH 360 0
DWIDTH 7 0
BBX 7 20 0 -5
BITMAP
00
00
00
00
00
00
7C
00
00
7C
00
00
7C
00
00
00
00
00
00
00
ENDCHAR

STARTCHAR Pi
ENCODING 208
SWIDTH 360 0
DWIDTH 7 0
BBX 7 20 0 -5
BITMAP
00
00
00
00
FE
44
44
44
44
44
44
44
44
44
EE
00
00
00
00
00
ENDCHAR

STARTCHAR Psi
ENCODING 209
SWIDTH 360 0
DWIDTH 7 0
BBX 7 20 0 -5
BITMAP
00
00
00
00
38
10
54
54
54
54
54
38
10
10
38
00
00
00
00
00
ENDCHAR

STARTCHAR Sigma
ENCODING 211
SWIDTH 360 0
DWIDTH 7 0
BBX 7 20 0 -5
BITMAP
00
00
00
00
FC
44
44
20
20
10
20
20
44
44
FC
00
00
00
00
00
ENDCHAR

STARTCHAR radical
ENCODING 214
SWIDTH 360 0
DWIDTH 7 0
BBX 7 20 0 -5
BITMAP
00
02
02
04
04
04
04
88
88
48
48
50
50
50
20
20
20
00
00
00
ENDCHAR

STARTCHAR Omega
ENCODING 215
SWIDTH 360 0
DWIDTH 7 0
BBX 7 20 0 -5
BITMAP
00
00
00
00
38
44
44
44
44
44
44
28
28
28
6C
00
00
00
00
00
ENDCHAR

STARTCHAR Xi
ENCODING 216
SWIDTH 360 0
DWIDTH 7 0
BBX 7 20 0 -5
BITMAP
00
00
00
00
7C
44
44
00
28
38
28
00
44
44
7C
00
00
00
00
00
ENDCHAR

STARTCHAR Upsilon1
ENCODING 217
SWIDTH 360 0
DWIDTH 7 0
BBX 7 20 0 -5
BITMAP
00
00
00
00
82
44
44
28
28
10
10
10
10
10
38
00
00
00
00
00
ENDCHAR

STARTCHAR propersubset
ENCODING 218
SWIDTH 360 0
DWIDTH 7 0
BBX 7 20 0 -5
BITMAP
00
00
00
00
00
00
1C
20
40
40
40
40
20
1C
00
00
00
00
00
00
ENDCHAR

STARTCHAR propersuperset
ENCODING 219
SWIDTH 360 0
DWIDTH 7 0
BBX 7 20 0 -5
BITMAP
00
00
00
00
00
00
70
08
04
04
04
04
08
70
00
00
00
00
00
00
ENDCHAR

STARTCHAR intersection
ENCODING 220
SWIDTH 360 0
DWIDTH 7 0
BBX 7 20 0 -5
BITMAP
00
00
00
00
00
00
38
44
44
44
44
44
44
44
00
00
00
00
00
00
ENDCHAR

STARTCHAR union
ENCODING 221
SWIDTH 360 0
DWIDTH 7 0
BBX 7 20 0 -5
BITMAP
00
00
00
00
00
00
44
44
44
44
44
44
44
38
00
00
00
00
00
00
ENDCHAR

STARTCHAR logicaland
ENCODING 222
SWIDTH 360 0
DWIDTH 7 0
BBX 7 20 0 -5
BITMAP
00
00
00
00
00
00
10
10
28
28
28
44
44
44
00
00
00
00
00
00
ENDCHAR

STARTCHAR logicalor
ENCODING 223
SWIDTH 360 0
DWIDTH 7 0
BBX 7 20 0 -5
BITMAP
00
00
00
00
00
00
44
44
44
28
28
28
10
10
00
00
00
00
00
00
ENDCHAR

STARTCHAR logicalnot
ENCODING 224
SWIDTH 360 0
DWIDTH 7 0
BBX 7 20 0 -5
BITMAP
00
00
00
00
00
00
00
00
00
7C
04
04
00
00
00
00
00
00
00
00
ENDCHAR

STARTCHAR alpha
ENCODING 225
SWIDTH 360 0
DWIDTH 7 0
BBX 7 20 0 -5
BITMAP
00
00
00
00
00
00
1A
26
44
44
44
44
4C
4A
32
00
00
00
00
00
ENDCHAR

STARTCHAR beta
ENCODING 226
SWIDTH 360 0
DWIDTH 7 0
BBX 7 20 0 -5
BITMAP
00
00
00
18
24
24
24
24
58
44
44
44
44
44
78
80
80
80
80
00
ENDCHAR

STARTCHAR chi
ENCODING 227
SWIDTH 360 0
DWIDTH 7 0
BBX 7 20 0 -5
BITMAP
00
00
00
00
00
00
32
12
14
14
08
08
18
18
24
24
24
66
00
00
ENDCHAR

STARTCHAR delta
ENCODING 228
SWIDTH 360 0
DWIDTH 7 0
BBX 7 20 0 -5
BITMAP
00
00
00
0C
10
10
08
18
24
44
44
44
48
48
30
00
00
00
00
00
ENDCHAR

STARTCHAR epsilon
ENCODING 229
SWIDTH 360 0
DWIDTH 7 0
BBX 7 20 0 -5
BITMAP
00
00
00
00
00
00
1C
20
20
20
7C
40
40
40
3C
00
00
00
00
00
ENDCHAR

STARTCHAR phi
ENCODING 230
SWIDTH 360 0
DWIDTH 7 0
BBX 7 20 0 -5
BITMAP
00
00
00
08
08
08
1C
2A
2A
4A
52
52
54
54
38
10
10
10
10
00
ENDCHAR

STARTCHAR gamma
ENCODING 231
SWIDTH 360 0
DWIDTH 7 0
BBX 7 20 0 -5
BITMAP
00
00
00
00
00
00
44
44
48
28
28
28
10
10
10
20
20
20
00
00
ENDCHAR

STARTCHAR eta
ENCODING 232
SWIDTH 360 0
DWIDTH 7 0
BBX 7 20 0 -5
BITMAP
00
00
00
00
00
00
7C
22
22
22
22
44
44
44
44
04
04
04
00
00
ENDCHAR

STARTCHAR iota
ENCODING 233
SWIDTH 360 0
DWIDTH 7 0
BBX 7 20 0 -5
BITMAP
00
00
00
00
00
00
30
10
10
10
20
20
20
24
38
00
00
00
00
00
ENDCHAR

STARTCHAR theta
ENCODING 234
SWIDTH 360 0
DWIDTH 7 0
BBX 7 20 0 -5
BITMAP
00
00
00
18
24
24
24
44
7C
44
44
48
48
48
30
00
00
00
00
00
ENDCHAR

STARTCHAR kappa
ENCODING 235
SWIDTH 360 0
DWIDTH 7 0
BBX 7 20 0 -5
BITMAP
00
00
00
00
00
00
24
24
28
28
30
50
48
48
44
00
00
00
00
00
ENDCHAR

STARTCHAR lambda
ENCODING 236
SWIDTH 360 0
DWIDTH 7 0
BBX 7 20 0 -5
BITMAP
00
00
00
30
10
10
10
10
10
28
28
28
48
48
4C
00
00
00
00
00
ENDCHAR

STARTCHAR nu
ENCODING 238
SWIDTH 360 0
DWIDTH 7 0
BBX 7 20 0 -5
BITMAP
00
00
00
00
00
00
64
24
24
24
24
28
28
30
20
00
00
00
00
00
ENDCHAR

STARTCHAR partialdiff
ENCODING 239
SWIDTH 360 0
DWIDTH 7 0
BBX 7 20 0 -5
BITMAP
00
00
00
70
08
08
04
1C
24
44
44
44
48
48
30
00
00
00
00
00
ENDCHAR

STARTCHAR pi
ENCODING 240
SWIDTH 360 0
DWIDTH 7 0
BBX 7 20 0 -5
BITMAP
00
00
00
00
00
00
7E
24
24
24
44
48
48
48
4C
00
00
00
00
00
ENDCHAR

STARTCHAR psi
ENCODING 241
SWIDTH 360 0
DWIDTH 7 0
BBX 7 20 0 -5
BITMAP
00
00
00
00
08
08
4A
4A
52
52
92
92
94
94
78
20
20
20
00
00
ENDCHAR

STARTCHAR rho
ENCODING 242
SWIDTH 360 0
DWIDTH 7 0
BBX 7 20 0 -5
BITMAP
00
00
00
00
00
00
18
24
24
44
44
44
44
48
70
40
40
40
00
00
ENDCHAR

STARTCHAR sigma
ENCODING 243
SWIDTH 360 0
DWIDTH 7 0
BBX 7 20 0 -5
BITMAP
00
00
00
00
00
00
1E
24
24
44
44
44
48
48
30
00
00
00
00
00
ENDCHAR

STARTCHAR tau
ENCODING 244
SWIDTH 360 0
DWIDTH 7 0
BBX 7 20 0 -5
BITMAP
00
00
00
00
00
00
7C
10
10
10
20
20
20
24
38
00
00
00
00
00
ENDCHAR

STARTCHAR florin
ENCODING 246
SWIDTH 360 0
DWIDTH 7 0
BBX 7 20 0 -5
BITMAP
00
00
00
00
0C
10
10
10
7C
10
10
10
20
20
20
20
20
C0
00
00
ENDCHAR

STARTCHAR omega
ENCODING 247
SWIDTH 360 0
DWIDTH 7 0
BBX 7 20 0 -5
BITMAP
00
00
00
00
00
00
24
44
54
54
54
54
54
54
28
00
00
00
00
00
ENDCHAR

STARTCHAR xi
ENCODING 248
SWIDTH 360 0
DWIDTH 7 0
BBX 7 20 0 -5
BITMAP
00
00
00
00
3C
10
20
20
20
18
20
40
40
40
38
04
04
04
08
00
ENDCHAR

STARTCHAR upsilon
ENCODING 249
SWIDTH 360 0
DWIDTH 7 0
BBX 7 20 0 -5
BITMAP
00
00
00
00
00
00
64
44
44
44
44
44
48
48
30
00
00
00
00
00
ENDCHAR

STARTCHAR zeta
ENCODING 250
SWIDTH 360 0
DWIDTH 7 0
BBX 7 20 0 -5
BITMAP
00
00
00
00
3C
04
08
10
20
20
40
40
40
40
38
04
04
04
08
00
ENDCHAR

STARTCHAR arrowleft
ENCODING 251
SWIDTH 360 0
DWIDTH 7 0
BBX 7 20 0 -5
BITMAP
00
00
00
00
00
00
00
00
10
20
7E
20
10
00
00
00
00
00
00
00
ENDCHAR

STARTCHAR arrowup
ENCODING 252
SWIDTH 360 0
DWIDTH 7 0
BBX 7 20 0 -5
BITMAP
00
00
00
00
10
38
54
54
10
10
10
10
10
10
10
00
00
00
00
00
ENDCHAR

STARTCHAR arrowright
ENCODING 253
SWIDTH 360 0
DWIDTH 7 0
BBX 7 20 0 -5
BITMAP
00
00
00
00
00
00
00
00
10
08
FC
08
10
00
00
00
00
00
00
00
ENDCHAR

STARTCHAR arrowdown
ENCODING 254
SWIDTH 360 0
DWIDTH 7 0
BBX 7 20 0 -5
BITMAP
00
00
00
00
10
10
10
10
10
10
10
54
54
38
10
00
00
00
00
00
ENDCHAR
ENDFONT
